<svg xmlns="http://www.w3.org/2000/svg" viewBox="0 0 100 100">
  <rect width="100" height="100" fill="#0a0a1a"/>
  <rect x="10" y="10" width="20" height="20" fill="#00d4ff"/>
  <rect x="35" y="10" width="20" height="20" fill="#00d4ff"/>
  <rect x="60" y="10" width="20" height="20" fill="#00d4ff"/>
  <rect x="85" y="10" width="20" height="20" fill="#00d4ff"/>
  <rect x="10" y="35" width="20" height="20" fill="#7c3aed"/>
  <rect x="35" y="35" width="20" height="20" fill="#7c3aed"/>
  <rect x="60" y="35" width="20" height="20" fill="#7c3aed"/>
  <rect x="85" y="35" width="20" height="20" fill="#7c3aed"/>
  <rect x="10" y="60" width="20" height="20" fill="#00d4ff"/>
  <rect x="35" y="60" width="20" height="20" fill="#00d4ff"/>
  <rect x="60" y="60" width="20" height="20" fill="#00d4ff"/>
  <rect x="85" y="60" width="20" height="20" fill="#00d4ff"/>
  <rect x="10" y="85" width="20" height="20" fill="#7c3aed"/>
  <rect x="35" y="85" width="20" height="20" fill="#7c3aed"/>
  <rect x="60" y="85" width="20" height="20" fill="#7c3aed"/>
  <rect x="85" y="85" width="20" height="20" fill="#7c3aed"/>
</svg>
